<svg xmlns="http://www.w3.org/2000/svg" xmlns:xlink="http://www.w3.org/1999/xlink" version="1.1" width="256" height="256" viewBox="0 0 256 256" xml:space="preserve">
<g style="stroke: none; stroke-width: 0; stroke-dasharray: none; stroke-linecap: butt; stroke-linejoin: miter; stroke-miterlimit: 10; fill: none; fill-rule: nonzero; opacity: 1;" transform="translate(1.4065934065934016 1.4065934065934016) scale(2.81 2.81)">
	<path d="M 89.861 49.154 c -0.025 0.27 -0.05 0.54 -0.08 0.809 c -0.047 0.424 -0.103 0.844 -0.161 1.264 c -0.038 0.272 -0.071 0.544 -0.114 0.815 c -0.097 0.613 -0.206 1.222 -0.327 1.827 c -0.07 0.35 -0.153 0.697 -0.231 1.045 c -0.067 0.298 -0.133 0.596 -0.206 0.892 c -0.091 0.368 -0.189 0.735 -0.29 1.101 c -0.075 0.275 -0.153 0.549 -0.234 0.822 c -0.106 0.36 -0.215 0.72 -0.33 1.078 c -0.025 0.076 -0.052 0.151 -0.077 0.227 c -2.407 1.785 -5.199 3.389 -8.298 4.794 c 1.228 -5.284 1.933 -10.88 2.078 -16.63 H 90 c -0.009 0.193 -0.022 0.386 -0.034 0.579 C 89.937 48.238 89.903 48.697 89.861 49.154 z" style="stroke: none; stroke-width: 1; stroke-dasharray: none; stroke-linecap: butt; stroke-linejoin: miter; stroke-miterlimit: 10; fill: rgb(0,170,255); fill-rule: nonzero; opacity: 1;" transform=" matrix(1 0 0 1 0 0) " stroke-linecap="round"/>
	<path d="M 64.685 85.524 c -0.546 0.266 -1.096 0.514 -1.649 0.757 c -0.359 0.157 -0.72 0.309 -1.084 0.458 c -0.522 0.213 -1.045 0.423 -1.573 0.616 c -0.409 0.149 -0.825 0.283 -1.24 0.42 c -0.326 0.108 -0.652 0.219 -0.981 0.32 c -0.453 0.138 -0.91 0.265 -1.369 0.39 c -0.293 0.079 -0.585 0.158 -0.879 0.232 c 1.503 -4.123 2.762 -9.185 3.74 -14.861 c 4.616 -0.661 9.033 -1.629 13.154 -2.877 c -2.012 5.453 -4.663 10.354 -7.894 14.429 C 64.835 85.445 64.761 85.487 64.685 85.524 z" style="stroke: none; stroke-width: 1; stroke-dasharray: none; stroke-linecap: butt; stroke-linejoin: miter; stroke-miterlimit: 10; fill: rgb(0,170,255); fill-rule: nonzero; opacity: 1;" transform=" matrix(1 0 0 1 0 0) " stroke-linecap="round"/>
	<path d="M 31.849 88.097 c -0.344 -0.105 -0.685 -0.221 -1.026 -0.335 c -0.398 -0.132 -0.798 -0.261 -1.192 -0.404 c -0.612 -0.223 -1.219 -0.463 -1.823 -0.714 c -0.23 -0.095 -0.46 -0.193 -0.688 -0.292 c -0.614 -0.267 -1.224 -0.544 -1.83 -0.84 c -0.067 -0.033 -0.133 -0.069 -0.2 -0.103 c -3.232 -4.075 -5.883 -8.977 -7.896 -14.43 c 4.121 1.248 8.538 2.216 13.154 2.876 c 0.978 5.675 2.238 10.737 3.74 14.861 c -0.298 -0.075 -0.595 -0.154 -0.891 -0.235 C 32.746 88.358 32.295 88.233 31.849 88.097 z" style="stroke: none; stroke-width: 1; stroke-dasharray: none; stroke-linecap: butt; stroke-linejoin: miter; stroke-miterlimit: 10; fill: rgb(0,170,255); fill-rule: nonzero; opacity: 1;" transform=" matrix(1 0 0 1 0 0) " stroke-linecap="round"/>
	<path d="M 2.113 58.808 c -0.116 -0.36 -0.225 -0.721 -0.331 -1.082 c -0.08 -0.27 -0.157 -0.541 -0.231 -0.813 c -0.101 -0.369 -0.2 -0.739 -0.292 -1.11 c -0.072 -0.289 -0.136 -0.581 -0.202 -0.873 c -0.08 -0.354 -0.164 -0.708 -0.235 -1.063 c -0.121 -0.603 -0.23 -1.209 -0.326 -1.82 c -0.044 -0.275 -0.077 -0.551 -0.115 -0.827 c -0.058 -0.416 -0.113 -0.833 -0.16 -1.253 c -0.03 -0.271 -0.056 -0.543 -0.081 -0.815 c -0.042 -0.455 -0.077 -0.913 -0.105 -1.372 C 0.023 47.585 0.009 47.392 0 47.198 h 8.41 c 0.145 5.75 0.85 11.347 2.078 16.631 c -3.1 -1.405 -5.892 -3.01 -8.299 -4.795 C 2.165 58.958 2.138 58.884 2.113 58.808 z" style="stroke: none; stroke-width: 1; stroke-dasharray: none; stroke-linecap: butt; stroke-linejoin: miter; stroke-miterlimit: 10; fill: rgb(0,170,255); fill-rule: nonzero; opacity: 1;" transform=" matrix(1 0 0 1 0 0) " stroke-linecap="round"/>
	<path d="M 0.139 40.848 c 0.025 -0.271 0.051 -0.542 0.081 -0.813 c 0.046 -0.421 0.102 -0.838 0.16 -1.255 c 0.038 -0.275 0.072 -0.551 0.115 -0.825 c 0.096 -0.611 0.205 -1.217 0.326 -1.82 c 0.072 -0.358 0.156 -0.714 0.237 -1.071 c 0.065 -0.288 0.129 -0.577 0.2 -0.862 c 0.093 -0.375 0.193 -0.748 0.295 -1.121 c 0.073 -0.266 0.148 -0.531 0.226 -0.795 c 0.109 -0.369 0.219 -0.737 0.337 -1.103 c 0.023 -0.072 0.049 -0.143 0.073 -0.216 c 2.407 -1.785 5.199 -3.39 8.299 -4.795 c -1.228 5.284 -1.933 10.88 -2.078 16.63 H 0 c 0.009 -0.194 0.023 -0.387 0.034 -0.58 C 0.063 41.762 0.097 41.304 0.139 40.848 z" style="stroke: none; stroke-width: 1; stroke-dasharray: none; stroke-linecap: butt; stroke-linejoin: miter; stroke-miterlimit: 10; fill: rgb(0,170,255); fill-rule: nonzero; opacity: 1;" transform=" matrix(1 0 0 1 0 0) " stroke-linecap="round"/>
	<path d="M 25.301 4.484 c 0.592 -0.289 1.189 -0.559 1.788 -0.821 c 0.251 -0.109 0.504 -0.217 0.757 -0.322 c 0.591 -0.245 1.185 -0.48 1.784 -0.699 c 0.394 -0.143 0.795 -0.272 1.194 -0.405 c 0.341 -0.114 0.682 -0.23 1.026 -0.335 c 0.444 -0.136 0.893 -0.26 1.343 -0.382 c 0.298 -0.081 0.596 -0.161 0.896 -0.236 c -1.503 4.123 -2.762 9.185 -3.741 14.861 c -4.616 0.661 -9.033 1.629 -13.154 2.877 c 2.013 -5.453 4.664 -10.355 7.895 -14.43 C 25.161 4.556 25.23 4.518 25.301 4.484 z" style="stroke: none; stroke-width: 1; stroke-dasharray: none; stroke-linecap: butt; stroke-linejoin: miter; stroke-miterlimit: 10; fill: rgb(0,170,255); fill-rule: nonzero; opacity: 1;" transform=" matrix(1 0 0 1 0 0) " stroke-linecap="round"/>
	<path d="M 58.151 1.903 c 0.341 0.105 0.68 0.22 1.019 0.333 c 0.402 0.133 0.805 0.263 1.202 0.408 c 0.585 0.214 1.166 0.444 1.744 0.683 c 0.276 0.114 0.55 0.23 0.823 0.349 c 0.589 0.257 1.175 0.523 1.756 0.806 c 0.073 0.035 0.143 0.075 0.216 0.111 c 3.231 4.075 5.883 8.977 7.895 14.43 c -4.121 -1.248 -8.538 -2.216 -13.154 -2.877 c -0.978 -5.675 -2.238 -10.737 -3.74 -14.861 c 0.299 0.075 0.597 0.155 0.894 0.236 C 57.256 1.642 57.706 1.767 58.151 1.903 z" style="stroke: none; stroke-width: 1; stroke-dasharray: none; stroke-linecap: butt; stroke-linejoin: miter; stroke-miterlimit: 10; fill: rgb(0,170,255); fill-rule: nonzero; opacity: 1;" transform=" matrix(1 0 0 1 0 0) " stroke-linecap="round"/>
	<path d="M 87.884 31.183 c 0.118 0.365 0.228 0.732 0.336 1.099 c 0.079 0.267 0.155 0.535 0.229 0.804 c 0.101 0.369 0.2 0.739 0.292 1.11 c 0.073 0.294 0.138 0.59 0.205 0.886 c 0.079 0.349 0.161 0.697 0.232 1.048 c 0.121 0.605 0.231 1.215 0.327 1.828 c 0.043 0.269 0.075 0.54 0.113 0.81 c 0.059 0.422 0.115 0.844 0.162 1.27 c 0.03 0.268 0.055 0.537 0.08 0.806 c 0.042 0.458 0.077 0.918 0.105 1.38 c 0.012 0.193 0.025 0.385 0.034 0.578 h -8.41 c -0.145 -5.75 -0.85 -11.346 -2.078 -16.63 c 3.1 1.405 5.892 3.01 8.299 4.795 C 87.834 31.04 87.86 31.111 87.884 31.183 z" style="stroke: none; stroke-width: 1; stroke-dasharray: none; stroke-linecap: butt; stroke-linejoin: miter; stroke-miterlimit: 10; fill: rgb(0,170,255); fill-rule: nonzero; opacity: 1;" transform=" matrix(1 0 0 1 0 0) " stroke-linecap="round"/>
	<path d="M 77.195 42.802 H 61.935 c -0.088 -7.776 -0.631 -15.305 -1.573 -22.123 c 5.03 0.79 9.782 1.961 14.1 3.476 C 76.084 29.97 77.023 36.271 77.195 42.802 z" style="stroke: none; stroke-width: 1; stroke-dasharray: none; stroke-linecap: butt; stroke-linejoin: miter; stroke-miterlimit: 10; fill: rgb(0,170,255); fill-rule: nonzero; opacity: 1;" transform=" matrix(1 0 0 1 0 0) " stroke-linecap="round"/>
	<path d="M 45 70.5 c -3.692 0 -7.32 -0.209 -10.847 -0.59 c -1.009 -6.906 -1.6 -14.652 -1.692 -22.711 H 57.54 c -0.092 8.06 -0.682 15.806 -1.692 22.711 C 52.321 70.291 48.693 70.5 45 70.5 z" style="stroke: none; stroke-width: 1; stroke-dasharray: none; stroke-linecap: butt; stroke-linejoin: miter; stroke-miterlimit: 10; fill: rgb(0,170,255); fill-rule: nonzero; opacity: 1;" transform=" matrix(1 0 0 1 0 0) " stroke-linecap="round"/>
	<path d="M 55.108 74.41 c -1.113 6.072 -2.568 11.314 -4.306 15.264 c -0.151 0.02 -0.302 0.04 -0.454 0.058 c -0.641 0.076 -1.284 0.137 -1.928 0.185 c -0.248 0.019 -0.494 0.042 -0.743 0.057 c -1.782 0.105 -3.572 0.105 -5.355 0 c -0.246 -0.014 -0.489 -0.037 -0.733 -0.056 c -0.647 -0.049 -1.292 -0.11 -1.936 -0.186 c -0.152 -0.018 -0.304 -0.038 -0.455 -0.058 c -1.737 -3.949 -3.192 -9.191 -4.305 -15.263 c 3.303 0.319 6.683 0.486 10.107 0.486 C 48.424 74.896 51.805 74.729 55.108 74.41 z" style="stroke: none; stroke-width: 1; stroke-dasharray: none; stroke-linecap: butt; stroke-linejoin: miter; stroke-miterlimit: 10; fill: rgb(0,170,255); fill-rule: nonzero; opacity: 1;" transform=" matrix(1 0 0 1 0 0) " stroke-linecap="round"/>
	<path d="M 32.461 42.802 c 0.092 -8.06 0.682 -15.806 1.692 -22.711 C 37.68 19.709 41.307 19.5 45 19.5 c 3.693 0 7.321 0.209 10.848 0.59 c 1.009 6.906 1.6 14.652 1.692 22.711 H 32.461 z" style="stroke: none; stroke-width: 1; stroke-dasharray: none; stroke-linecap: butt; stroke-linejoin: miter; stroke-miterlimit: 10; fill: rgb(0,170,255); fill-rule: nonzero; opacity: 1;" transform=" matrix(1 0 0 1 0 0) " stroke-linecap="round"/>
	<path d="M 34.893 15.59 c 1.113 -6.072 2.568 -11.314 4.305 -15.264 c 0.151 -0.02 0.302 -0.04 0.454 -0.058 C 40.3 0.192 40.95 0.13 41.601 0.082 c 0.238 -0.018 0.475 -0.04 0.714 -0.055 c 1.788 -0.105 3.581 -0.105 5.368 0 c 0.243 0.014 0.484 0.037 0.726 0.055 c 0.648 0.049 1.295 0.11 1.94 0.186 c 0.151 0.018 0.302 0.038 0.453 0.058 c 1.738 3.949 3.193 9.191 4.306 15.264 c -3.303 -0.319 -6.684 -0.486 -10.108 -0.486 C 41.576 15.104 38.196 15.271 34.893 15.59 z" style="stroke: none; stroke-width: 1; stroke-dasharray: none; stroke-linecap: butt; stroke-linejoin: miter; stroke-miterlimit: 10; fill: rgb(0,170,255); fill-rule: nonzero; opacity: 1;" transform=" matrix(1 0 0 1 0 0) " stroke-linecap="round"/>
	<path d="M 29.638 20.679 c -0.941 6.818 -1.485 14.347 -1.573 22.123 H 12.805 c 0.172 -6.532 1.111 -12.832 2.733 -18.647 C 19.856 22.64 24.609 21.468 29.638 20.679 z" style="stroke: none; stroke-width: 1; stroke-dasharray: none; stroke-linecap: butt; stroke-linejoin: miter; stroke-miterlimit: 10; fill: rgb(0,170,255); fill-rule: nonzero; opacity: 1;" transform=" matrix(1 0 0 1 0 0) " stroke-linecap="round"/>
	<path d="M 12.805 47.198 h 15.261 c 0.088 7.776 0.631 15.305 1.573 22.123 c -5.029 -0.79 -9.782 -1.961 -14.1 -3.475 C 13.917 60.03 12.978 53.73 12.805 47.198 z" style="stroke: none; stroke-width: 1; stroke-dasharray: none; stroke-linecap: butt; stroke-linejoin: miter; stroke-miterlimit: 10; fill: rgb(0,170,255); fill-rule: nonzero; opacity: 1;" transform=" matrix(1 0 0 1 0 0) " stroke-linecap="round"/>
	<path d="M 60.362 69.321 c 0.941 -6.818 1.485 -14.347 1.573 -22.123 h 15.261 c -0.172 6.532 -1.111 12.832 -2.733 18.648 C 70.144 67.36 65.391 68.531 60.362 69.321 z" style="stroke: none; stroke-width: 1; stroke-dasharray: none; stroke-linecap: butt; stroke-linejoin: miter; stroke-miterlimit: 10; fill: rgb(0,170,255); fill-rule: nonzero; opacity: 1;" transform=" matrix(1 0 0 1 0 0) " stroke-linecap="round"/>
	<path d="M 84.798 23.9 c -2.09 -1.123 -4.346 -2.144 -6.73 -3.068 c -1.156 -3.7 -2.581 -7.201 -4.254 -10.443 C 78.294 14.125 82.037 18.713 84.798 23.9 z" style="stroke: none; stroke-width: 1; stroke-dasharray: none; stroke-linecap: butt; stroke-linejoin: miter; stroke-miterlimit: 10; fill: rgb(0,170,255); fill-rule: nonzero; opacity: 1;" transform=" matrix(1 0 0 1 0 0) " stroke-linecap="round"/>
	<path d="M 16.185 10.39 c -1.672 3.242 -3.097 6.743 -4.253 10.442 c -2.383 0.924 -4.639 1.945 -6.73 3.068 C 7.964 18.712 11.706 14.125 16.185 10.39 z" style="stroke: none; stroke-width: 1; stroke-dasharray: none; stroke-linecap: butt; stroke-linejoin: miter; stroke-miterlimit: 10; fill: rgb(0,170,255); fill-rule: nonzero; opacity: 1;" transform=" matrix(1 0 0 1 0 0) " stroke-linecap="round"/>
	<path d="M 5.203 66.101 c 2.09 1.123 4.346 2.143 6.729 3.068 c 1.156 3.699 2.581 7.2 4.253 10.442 C 11.706 75.875 7.964 71.288 5.203 66.101 z" style="stroke: none; stroke-width: 1; stroke-dasharray: none; stroke-linecap: butt; stroke-linejoin: miter; stroke-miterlimit: 10; fill: rgb(0,170,255); fill-rule: nonzero; opacity: 1;" transform=" matrix(1 0 0 1 0 0) " stroke-linecap="round"/>
	<path d="M 73.815 79.611 c 1.673 -3.242 3.097 -6.743 4.253 -10.442 c 2.383 -0.924 4.639 -1.945 6.729 -3.067 C 82.036 71.288 78.294 75.875 73.815 79.611 z" style="stroke: none; stroke-width: 1; stroke-dasharray: none; stroke-linecap: butt; stroke-linejoin: miter; stroke-miterlimit: 10; fill: rgb(0,170,255); fill-rule: nonzero; opacity: 1;" transform=" matrix(1 0 0 1 0 0) " stroke-linecap="round"/>
</g>
</svg>